<svg width="3289" height="312" viewBox="0 0 3289 312" fill="none" xmlns="http://www.w3.org/2000/svg">
<path fill-rule="evenodd" clip-rule="evenodd" d="M55.5179 0H254.714C285.139 0 309.803 24.6681 309.803 55.0977V254.32C309.803 284.75 285.139 309.416 254.714 309.416H55.5179C25.0925 309.416 0.427734 284.75 0.427734 254.32V55.0977C0.427734 24.6681 25.0925 0 55.5179 0ZM218.814 82.8806H146.664C142.179 82.8806 138.543 86.5167 138.543 91.0022V102.386C138.543 106.871 142.179 110.507 146.664 110.507H218.814C223.299 110.507 226.935 106.871 226.935 102.386V91.0022C226.935 86.5167 223.299 82.8806 218.814 82.8806ZM146.664 140.902H205.925C210.41 140.902 214.046 144.538 214.046 149.024V160.407C214.046 164.893 210.41 168.529 205.925 168.529H146.664C142.179 168.529 138.543 164.893 138.543 160.407V149.024C138.543 144.538 142.179 140.902 146.664 140.902ZM226.935 218.416V207.032C226.935 202.549 223.297 198.91 218.814 198.91H132.034C120.366 198.91 110.92 189.463 110.92 177.794V91.0022C110.92 86.5191 107.282 82.8806 102.8 82.8806H91.4176C86.935 82.8806 83.297 86.5191 83.297 91.0022V194.726C84.3886 211.801 98.0311 225.446 115.104 226.537H218.814C223.297 226.537 226.935 222.899 226.935 218.416Z" fill="#316BFF"/>
<path d="M146.663 82.8809H218.814C223.299 82.8809 226.934 86.517 226.934 91.0025V102.386C226.934 106.871 223.299 110.508 218.814 110.508H146.663C142.179 110.508 138.543 106.871 138.543 102.386V91.0025C138.543 86.517 142.179 82.8809 146.663 82.8809Z" fill="white"/>
<path d="M146.663 140.902H205.925C210.41 140.902 214.045 144.538 214.045 149.024V160.407C214.045 164.893 210.41 168.529 205.925 168.529H146.663C142.179 168.529 138.543 164.893 138.543 160.407V149.024C138.543 144.538 142.179 140.902 146.663 140.902Z" fill="white"/>
<path d="M226.934 207.033V218.416C226.934 222.899 223.297 226.538 218.814 226.538H115.104C98.0309 225.446 84.3884 211.802 83.2969 194.726V91.0025C83.2969 86.5193 86.9348 82.8809 91.4174 82.8809H102.799C107.282 82.8809 110.92 86.5193 110.92 91.0025V177.794C110.92 189.464 120.366 198.911 132.034 198.911H218.814C223.297 198.911 226.934 202.549 226.934 207.033Z" fill="white"/>
<path d="M422.662 59.3716V245.69C422.662 250.174 419.024 253.812 414.543 253.812H400.939C396.455 253.812 392.816 250.174 392.816 245.69V59.3716C392.816 54.8884 396.455 51.25 400.939 51.25H414.543C419.024 51.25 422.662 54.8884 422.662 59.3716Z" fill="#1D1D1B"/>
<path d="M480.896 193.543C483.508 215.283 501.465 229.473 527.541 229.473C539.626 229.473 554.32 225.64 563.909 218.662C567.119 216.322 571.524 216.595 574.381 219.363L582.294 227.043C585.763 230.409 585.582 236.074 581.839 239.115C566.95 251.226 545.978 257.295 526.958 257.295C480.012 257.295 449.881 227.446 449.881 181.665C449.881 135.885 480.313 107.192 524.929 107.192C569.547 107.192 599.405 132.792 597.314 185.759C597.145 190.112 593.545 193.556 589.192 193.556H480.884L480.896 193.543ZM568.104 168.333C566.364 145.735 549.85 133.845 525.8 133.845C504.062 133.845 486.106 145.722 481.467 168.333H568.104Z" fill="#1D1D1B"/>
<path d="M719.06 245.691V170.594C719.06 151.764 703.817 136.08 684.989 136.457C664.266 136.86 651.248 154.376 651.248 175.285V245.691C651.248 250.174 647.61 253.812 643.129 253.812H629.525C625.041 253.812 621.402 250.174 621.402 245.691V118.784C621.402 114.301 625.041 110.662 629.525 110.662H641.919C646.076 110.662 649.56 113.794 650 117.926L651.26 129.79C659.368 114.145 676.182 108.349 691.24 108.349C709.497 108.349 728.037 115.886 736.156 137.041C747.748 115.886 765.716 108.648 785.128 108.648C824.536 108.648 845.688 133.572 845.688 174.726V245.717C845.688 250.2 842.05 253.838 837.569 253.838H823.679C819.195 253.838 815.557 250.2 815.557 245.717V169.009C815.557 151.479 801.577 136.794 784.049 136.769C762.856 136.729 749.203 154.129 749.203 175.311V245.717C749.203 250.2 745.564 253.838 741.08 253.838H727.191C722.71 253.838 719.071 250.2 719.071 245.717L719.06 245.691Z" fill="#1D1D1B"/>
<path d="M909.418 59.3716V245.69C909.418 250.174 905.78 253.812 901.299 253.812H887.695C883.211 253.812 879.575 250.174 879.575 245.69V59.3716C879.575 54.8884 883.211 51.25 887.695 51.25H901.299C905.78 51.25 909.418 54.8884 909.418 59.3716Z" fill="#1D1D1B"/>
<path d="M945.346 118.485V245.691C945.346 250.174 948.981 253.812 953.465 253.812H967.069C971.55 253.812 975.189 250.174 975.189 245.691V118.485C975.189 114.002 971.55 110.363 967.069 110.363H953.465C948.981 110.363 945.346 114.002 945.346 118.485Z" fill="#1D1D1B"/>
<path d="M1106.28 140.095C1103.57 143.266 1098.93 143.773 1095.51 141.395C1085.83 134.69 1075.39 132.675 1063.57 132.675C1045.31 132.39 1033.14 138.471 1033.14 149.776C1033.42 161.654 1045.88 166.293 1064.14 168.034C1090.5 170.347 1124.99 176.143 1124.7 212.957C1124.42 239.622 1100.94 258.166 1063.85 258.166C1042.69 258.166 1021.51 253.812 1003.66 236.945C1000.69 234.138 1000.33 229.538 1002.76 226.251L1008.85 217.999C1011.58 214.308 1016.88 213.555 1020.43 216.465C1033.31 227.043 1050.04 231.539 1064.44 231.786C1078.64 231.786 1094.57 226.575 1094.87 213.243C1095.15 200.495 1082.99 195.57 1061.84 193.53C1034.89 190.918 1003.89 182.224 1003.61 150.647C1003.61 119.057 1036.35 107.18 1063.01 107.18C1081.89 107.18 1097.14 110.792 1111.15 120.772C1115.03 123.54 1115.72 129.05 1112.63 132.675L1106.3 140.095H1106.28Z" fill="#1D1D1B"/>
<path d="M1194.81 78.8247V111.234H1228.41C1232.89 111.234 1236.53 114.872 1236.53 119.356V128.907C1236.53 133.39 1232.89 137.028 1228.41 137.028H1194.51V205.134C1194.51 220.208 1201.18 228.602 1215.08 228.602C1218.56 228.602 1222.34 227.875 1226.07 226.666C1230.23 225.315 1234.7 227.68 1236.1 231.825L1239.51 241.818C1240.95 246.067 1238.69 250.719 1234.43 252.136C1227.49 254.449 1220.8 255.553 1213.33 255.553C1182.32 256.424 1164.65 238.751 1164.65 205.134V137.028H1145.24C1140.76 137.028 1137.12 133.39 1137.12 128.907V119.356C1137.12 114.872 1140.76 111.234 1145.24 111.234H1164.65V80.2932C1164.65 76.1348 1167.78 72.6524 1171.92 72.2106L1185.81 70.7422C1190.6 70.2354 1194.78 73.9908 1194.78 78.8247H1194.81Z" fill="#1D1D1B"/>
<path d="M967.795 53.1343H952.737C948.253 53.1343 944.617 56.7704 944.617 61.2559V76.3168C944.617 80.8023 948.253 84.4387 952.737 84.4387H967.795C972.282 84.4387 975.918 80.8023 975.918 76.3168V61.2559C975.918 56.7704 972.282 53.1343 967.795 53.1343Z" fill="#1D1D1B"/>
<path d="M1306 39.5L1306 272.5" stroke="#1D1D1B" stroke-width="16" stroke-linecap="round"/>
<path d="M1448.84 251H1389.98V69.1818H1450.7C1468.51 69.1818 1483.81 72.8217 1496.6 80.1016C1509.38 87.3222 1519.18 97.7093 1525.98 111.263C1532.85 124.757 1536.28 140.944 1536.28 159.825C1536.28 178.764 1532.82 195.04 1525.89 208.653C1519.03 222.265 1509.09 232.741 1496.07 240.08C1483.04 247.36 1467.3 251 1448.84 251ZM1417.41 227.03H1447.33C1461.18 227.03 1472.69 224.426 1481.86 219.217C1491.03 213.95 1497.9 206.344 1502.46 196.401C1507.01 186.399 1509.29 174.207 1509.29 159.825C1509.29 145.561 1507.01 133.457 1502.46 123.514C1497.96 113.571 1491.24 106.025 1482.3 100.876C1473.37 95.7266 1462.27 93.152 1449.01 93.152H1417.41V227.03ZM1627.04 253.752C1613.6 253.752 1602.03 250.882 1592.32 245.141C1582.68 239.34 1575.22 231.202 1569.95 220.727C1564.74 210.192 1562.14 197.851 1562.14 183.706C1562.14 169.738 1564.74 157.428 1569.95 146.774C1575.22 136.121 1582.56 127.805 1591.97 121.827C1601.44 115.85 1612.51 112.861 1625.17 112.861C1632.87 112.861 1640.32 114.133 1647.54 116.678C1654.76 119.223 1661.24 123.218 1666.99 128.663C1672.73 134.108 1677.25 141.181 1680.57 149.881C1683.88 158.522 1685.54 169.028 1685.54 181.398V190.808H1577.14V170.922H1659.53C1659.53 163.938 1658.11 157.753 1655.27 152.367C1652.43 146.922 1648.43 142.631 1643.28 139.494C1638.19 136.357 1632.21 134.789 1625.35 134.789C1617.89 134.789 1611.38 136.624 1605.82 140.293C1600.31 143.904 1596.05 148.638 1593.03 154.498C1590.07 160.298 1588.59 166.601 1588.59 173.408V188.944C1588.59 198.058 1590.19 205.812 1593.39 212.204C1596.64 218.596 1601.17 223.479 1606.97 226.852C1612.77 230.167 1619.55 231.824 1627.3 231.824C1632.33 231.824 1636.92 231.114 1641.06 229.693C1645.21 228.214 1648.79 226.024 1651.8 223.124C1654.82 220.223 1657.13 216.643 1658.73 212.381L1683.85 216.909C1681.84 224.307 1678.23 230.788 1673.02 236.352C1667.87 241.856 1661.39 246.147 1653.58 249.224C1645.83 252.243 1636.98 253.752 1627.04 253.752ZM1827.74 114.636L1778.29 251H1749.88L1700.34 114.636H1728.84L1763.38 219.572H1764.8L1799.24 114.636H1827.74ZM1906.82 253.752C1893.39 253.752 1881.81 250.882 1872.11 245.141C1862.46 239.34 1855 231.202 1849.74 220.727C1844.53 210.192 1841.92 197.851 1841.92 183.706C1841.92 169.738 1844.53 157.428 1849.74 146.774C1855 136.121 1862.34 127.805 1871.75 121.827C1881.22 115.85 1892.29 112.861 1904.96 112.861C1912.65 112.861 1920.11 114.133 1927.33 116.678C1934.55 119.223 1941.03 123.218 1946.77 128.663C1952.51 134.108 1957.04 141.181 1960.35 149.881C1963.67 158.522 1965.33 169.028 1965.33 181.398V190.808H1856.93V170.922H1939.31C1939.31 163.938 1937.89 157.753 1935.05 152.367C1932.21 146.922 1928.22 142.631 1923.07 139.494C1917.98 136.357 1912 134.789 1905.13 134.789C1897.68 134.789 1891.17 136.624 1885.6 140.293C1880.1 143.904 1875.84 148.638 1872.82 154.498C1869.86 160.298 1868.38 166.601 1868.38 173.408V188.944C1868.38 198.058 1869.98 205.812 1873.17 212.204C1876.43 218.596 1880.96 223.479 1886.76 226.852C1892.56 230.167 1899.33 231.824 1907.09 231.824C1912.12 231.824 1916.7 231.114 1920.85 229.693C1924.99 228.214 1928.57 226.024 1931.59 223.124C1934.61 220.223 1936.92 216.643 1938.51 212.381L1963.64 216.909C1961.63 224.307 1958.02 230.788 1952.81 236.352C1947.66 241.856 1941.18 246.147 1933.37 249.224C1925.61 252.243 1916.76 253.752 1906.82 253.752ZM2021.32 69.1818V251H1994.78V69.1818H2021.32ZM2114.47 253.752C2101.69 253.752 2090.53 250.822 2081 244.963C2071.48 239.104 2064.08 230.906 2058.81 220.371C2053.54 209.836 2050.91 197.526 2050.91 183.44C2050.91 169.294 2053.54 156.924 2058.81 146.33C2064.08 135.736 2071.48 127.509 2081 121.65C2090.53 115.79 2101.69 112.861 2114.47 112.861C2127.26 112.861 2138.41 115.79 2147.94 121.65C2157.47 127.509 2164.87 135.736 2170.14 146.33C2175.41 156.924 2178.04 169.294 2178.04 183.44C2178.04 197.526 2175.41 209.836 2170.14 220.371C2164.87 230.906 2157.47 239.104 2147.94 244.963C2138.41 250.822 2127.26 253.752 2114.47 253.752ZM2114.56 231.469C2122.85 231.469 2129.71 229.279 2135.16 224.899C2140.6 220.519 2144.63 214.69 2147.23 207.41C2149.9 200.13 2151.23 192.11 2151.23 183.351C2151.23 174.651 2149.9 166.661 2147.23 159.381C2144.63 152.042 2140.6 146.153 2135.16 141.714C2129.71 137.275 2122.85 135.055 2114.56 135.055C2106.22 135.055 2099.29 137.275 2093.79 141.714C2088.34 146.153 2084.29 152.042 2081.63 159.381C2079.02 166.661 2077.72 174.651 2077.72 183.351C2077.72 192.11 2079.02 200.13 2081.63 207.41C2084.29 214.69 2088.34 220.519 2093.79 224.899C2099.29 229.279 2106.22 231.469 2114.56 231.469ZM2207.67 302.136V114.636H2233.59V136.742H2235.81C2237.35 133.901 2239.57 130.616 2242.47 126.888C2245.37 123.159 2249.39 119.904 2254.54 117.122C2259.69 114.281 2266.5 112.861 2274.96 112.861C2285.97 112.861 2295.8 115.643 2304.44 121.206C2313.08 126.769 2319.85 134.789 2324.77 145.265C2329.74 155.741 2332.22 168.347 2332.22 183.085C2332.22 197.822 2329.77 210.458 2324.86 220.993C2319.94 231.469 2313.2 239.548 2304.61 245.229C2296.03 250.852 2286.24 253.663 2275.23 253.663C2266.94 253.663 2260.17 252.272 2254.9 249.491C2249.69 246.709 2245.61 243.454 2242.65 239.725C2239.69 235.996 2237.41 232.682 2235.81 229.782H2234.21V302.136H2207.67ZM2233.68 182.818C2233.68 192.406 2235.07 200.811 2237.85 208.031C2240.64 215.252 2244.66 220.904 2249.93 224.988C2255.19 229.013 2261.65 231.025 2269.28 231.025C2277.21 231.025 2283.84 228.924 2289.17 224.722C2294.49 220.46 2298.52 214.69 2301.24 207.41C2304.02 200.13 2305.41 191.933 2305.41 182.818C2305.41 173.822 2304.05 165.743 2301.33 158.582C2298.67 151.42 2294.64 145.768 2289.26 141.625C2283.93 137.482 2277.27 135.411 2269.28 135.411C2261.59 135.411 2255.08 137.393 2249.75 141.359C2244.48 145.324 2240.49 150.858 2237.76 157.96C2235.04 165.062 2233.68 173.348 2233.68 182.818ZM2420.74 253.752C2407.3 253.752 2395.73 250.882 2386.02 245.141C2376.38 239.34 2368.92 231.202 2363.65 220.727C2358.44 210.192 2355.84 197.851 2355.84 183.706C2355.84 169.738 2358.44 157.428 2363.65 146.774C2368.92 136.121 2376.26 127.805 2385.67 121.827C2395.14 115.85 2406.21 112.861 2418.87 112.861C2426.57 112.861 2434.02 114.133 2441.24 116.678C2448.47 119.223 2454.95 123.218 2460.69 128.663C2466.43 134.108 2470.96 141.181 2474.27 149.881C2477.58 158.522 2479.24 169.028 2479.24 181.398V190.808H2370.84V170.922H2453.23C2453.23 163.938 2451.81 157.753 2448.97 152.367C2446.13 146.922 2442.13 142.631 2436.98 139.494C2431.89 136.357 2425.92 134.789 2419.05 134.789C2411.59 134.789 2405.08 136.624 2399.52 140.293C2394.01 143.904 2389.75 148.638 2386.73 154.498C2383.78 160.298 2382.3 166.601 2382.3 173.408V188.944C2382.3 198.058 2383.89 205.812 2387.09 212.204C2390.35 218.596 2394.87 223.479 2400.67 226.852C2406.47 230.167 2413.25 231.824 2421 231.824C2426.03 231.824 2430.62 231.114 2434.76 229.693C2438.91 228.214 2442.49 226.024 2445.51 223.124C2448.52 220.223 2450.83 216.643 2452.43 212.381L2477.56 216.909C2475.54 224.307 2471.93 230.788 2466.72 236.352C2461.57 241.856 2455.09 246.147 2447.28 249.224C2439.53 252.243 2430.68 253.752 2420.74 253.752ZM2508.69 251V114.636H2534.35V136.298H2535.77C2538.26 128.959 2542.64 123.189 2548.91 118.987C2555.24 114.725 2562.41 112.594 2570.4 112.594C2572.05 112.594 2574.01 112.654 2576.25 112.772C2578.56 112.89 2580.37 113.038 2581.67 113.216V138.607C2580.6 138.311 2578.71 137.985 2575.99 137.63C2573.27 137.216 2570.54 137.009 2567.82 137.009C2561.55 137.009 2555.95 138.34 2551.04 141.004C2546.19 143.608 2542.34 147.248 2539.5 151.923C2536.66 156.54 2535.24 161.807 2535.24 167.726V251H2508.69ZM2731.79 251H2672.93V69.1818H2733.66C2751.47 69.1818 2766.77 72.8217 2779.56 80.1016C2792.34 87.3222 2802.14 97.7093 2808.94 111.263C2815.81 124.757 2819.24 140.944 2819.24 159.825C2819.24 178.764 2815.78 195.04 2808.85 208.653C2801.99 222.265 2792.05 232.741 2779.02 240.08C2766 247.36 2750.26 251 2731.79 251ZM2700.37 227.03H2730.28C2744.13 227.03 2755.65 224.426 2764.82 219.217C2773.99 213.95 2780.86 206.344 2785.42 196.401C2789.97 186.399 2792.25 174.207 2792.25 159.825C2792.25 145.561 2789.97 133.457 2785.42 123.514C2780.92 113.571 2774.2 106.025 2765.26 100.876C2756.33 95.7266 2745.23 93.152 2731.97 93.152H2700.37V227.03ZM2908.66 253.752C2895.88 253.752 2884.72 250.822 2875.19 244.963C2865.66 239.104 2858.27 230.906 2853 220.371C2847.73 209.836 2845.1 197.526 2845.1 183.44C2845.1 169.294 2847.73 156.924 2853 146.33C2858.27 135.736 2865.66 127.509 2875.19 121.65C2884.72 115.79 2895.88 112.861 2908.66 112.861C2921.45 112.861 2932.6 115.79 2942.13 121.65C2951.66 127.509 2959.06 135.736 2964.33 146.33C2969.59 156.924 2972.23 169.294 2972.23 183.44C2972.23 197.526 2969.59 209.836 2964.33 220.371C2959.06 230.906 2951.66 239.104 2942.13 244.963C2932.6 250.822 2921.45 253.752 2908.66 253.752ZM2908.75 231.469C2917.04 231.469 2923.9 229.279 2929.35 224.899C2934.79 220.519 2938.82 214.69 2941.42 207.41C2944.09 200.13 2945.42 192.11 2945.42 183.351C2945.42 174.651 2944.09 166.661 2941.42 159.381C2938.82 152.042 2934.79 146.153 2929.35 141.714C2923.9 137.275 2917.04 135.055 2908.75 135.055C2900.41 135.055 2893.48 137.275 2887.98 141.714C2882.53 146.153 2878.48 152.042 2875.81 159.381C2873.21 166.661 2871.91 174.651 2871.91 183.351C2871.91 192.11 2873.21 200.13 2875.81 207.41C2878.48 214.69 2882.53 220.519 2887.98 224.899C2893.48 229.279 2900.41 231.469 2908.75 231.469ZM3059.3 253.752C3046.1 253.752 3034.74 250.763 3025.21 244.786C3015.74 238.749 3008.46 230.433 3003.37 219.839C2998.28 209.245 2995.73 197.112 2995.73 183.44C2995.73 169.59 2998.34 157.368 3003.54 146.774C3008.75 136.121 3016.09 127.805 3025.56 121.827C3035.03 115.85 3046.19 112.861 3059.03 112.861C3069.39 112.861 3078.62 114.784 3086.73 118.631C3094.84 122.419 3101.38 127.746 3106.35 134.612C3111.38 141.477 3114.37 149.497 3115.32 158.67H3089.48C3088.06 152.278 3084.81 146.774 3079.72 142.158C3074.69 137.541 3067.94 135.233 3059.48 135.233C3052.08 135.233 3045.6 137.186 3040.03 141.092C3034.53 144.939 3030.24 150.444 3027.16 157.605C3024.08 164.707 3022.54 173.112 3022.54 182.818C3022.54 192.761 3024.05 201.343 3027.07 208.564C3030.09 215.785 3034.35 221.378 3039.86 225.343C3045.42 229.308 3051.96 231.291 3059.48 231.291C3064.51 231.291 3069.06 230.374 3073.15 228.539C3077.29 226.645 3080.75 223.952 3083.53 220.46C3086.38 216.968 3088.36 212.766 3089.48 207.854H3115.32C3114.37 216.672 3111.5 224.544 3106.71 231.469C3101.91 238.393 3095.49 243.839 3087.44 247.804C3079.45 251.769 3070.07 253.752 3059.3 253.752ZM3245.89 147.928L3221.83 152.19C3220.82 149.112 3219.22 146.182 3217.03 143.401C3214.9 140.619 3212 138.34 3208.33 136.565C3204.67 134.789 3200.08 133.901 3194.57 133.901C3187.06 133.901 3180.78 135.588 3175.75 138.962C3170.72 142.276 3168.21 146.567 3168.21 151.835C3168.21 156.392 3169.89 160.061 3173.27 162.843C3176.64 165.625 3182.09 167.903 3189.6 169.679L3211.26 174.651C3223.81 177.551 3233.16 182.019 3239.32 188.056C3245.47 194.093 3248.55 201.935 3248.55 211.582C3248.55 219.75 3246.18 227.03 3241.45 233.422C3236.77 239.755 3230.23 244.726 3221.83 248.337C3213.48 251.947 3203.81 253.752 3192.8 253.752C3177.53 253.752 3165.07 250.497 3155.42 243.987C3145.78 237.417 3139.86 228.095 3137.67 216.021L3163.32 212.115C3164.92 218.803 3168.21 223.863 3173.18 227.296C3178.15 230.67 3184.63 232.357 3192.62 232.357C3201.32 232.357 3208.28 230.551 3213.48 226.941C3218.69 223.272 3221.3 218.803 3221.3 213.536C3221.3 209.274 3219.7 205.693 3216.5 202.793C3213.37 199.893 3208.54 197.703 3202.03 196.224L3178.95 191.163C3166.22 188.263 3156.81 183.647 3150.72 177.314C3144.68 170.981 3141.66 162.961 3141.66 153.255C3141.66 145.206 3143.91 138.163 3148.41 132.126C3152.91 126.089 3159.12 121.384 3167.05 118.01C3174.98 114.577 3184.07 112.861 3194.31 112.861C3209.04 112.861 3220.65 116.057 3229.11 122.449C3237.57 128.782 3243.17 137.275 3245.89 147.928Z" fill="#1D1D1B"/>
</svg>
